<svg xmlns="http://www.w3.org/2000/svg" width="560" height="400" viewBox="0 0 560 400">

  <!-- ════ HEADERS ════ -->
  <rect x="0"   y="0" width="140" height="24" fill="#0F2235"/>
  <text x="70"  y="16" text-anchor="middle" font-size="10" fill="#4C6A88" font-family="monospace">Trench</text>
  <rect x="140" y="0" width="140" height="24" fill="#162A40"/>
  <text x="210" y="16" text-anchor="middle" font-size="10" fill="#4E6E8C" font-family="monospace">Hadal  ★</text>
  <rect x="280" y="0" width="140" height="24" fill="#142C3E"/>
  <text x="350" y="16" text-anchor="middle" font-size="10" fill="#4A6E86" font-family="monospace">Pelagic</text>
  <rect x="420" y="0" width="140" height="24" fill="#162E42"/>
  <text x="490" y="16" text-anchor="middle" font-size="10" fill="#4A7080" font-family="monospace">Benthic</text>

  <!-- ════ base08  coral  same all ════ -->
  <rect x="0"   y="24" width="140" height="22" fill="#081520"/>
  <rect x="140" y="24" width="140" height="22" fill="#0D1B2A"/>
  <rect x="280" y="24" width="140" height="22" fill="#0A1F2E"/>
  <rect x="420" y="24" width="140" height="22" fill="#0C2030"/>
  <rect x="5"   y="32" width="8" height="8" rx="1" fill="#C47A72"/>
  <rect x="145" y="32" width="8" height="8" rx="1" fill="#C47A72"/>
  <rect x="285" y="32" width="8" height="8" rx="1" fill="#C47A72"/>
  <rect x="425" y="32" width="8" height="8" rx="1" fill="#C47A72"/>
  <text x="17"  y="40" font-size="7.5" fill="#3A5A70" font-family="monospace">08  error</text>
  <text x="157" y="40" font-size="7.5" fill="#3A5A70" font-family="monospace">08  error</text>
  <text x="297" y="40" font-size="7.5" fill="#3A5A70" font-family="monospace">08  error</text>
  <text x="437" y="40" font-size="7.5" fill="#3A5A70" font-family="monospace">08  error</text>
  <text x="85"  y="40" font-size="7.5" fill="#C47A72" font-family="monospace">#C47A72</text>
  <text x="225" y="40" font-size="7.5" fill="#C47A72" font-family="monospace">#C47A72</text>
  <text x="365" y="40" font-size="7.5" fill="#C47A72" font-family="monospace">#C47A72</text>
  <text x="505" y="40" font-size="7.5" fill="#C47A72" font-family="monospace">#C47A72</text>

  <!-- ════ base09  amber  same all ════ -->
  <rect x="0"   y="46" width="140" height="22" fill="#081520"/>
  <rect x="140" y="46" width="140" height="22" fill="#0D1B2A"/>
  <rect x="280" y="46" width="140" height="22" fill="#0A1F2E"/>
  <rect x="420" y="46" width="140" height="22" fill="#0C2030"/>
  <rect x="5"   y="54" width="8" height="8" rx="1" fill="#C8945A"/>
  <rect x="145" y="54" width="8" height="8" rx="1" fill="#C8945A"/>
  <rect x="285" y="54" width="8" height="8" rx="1" fill="#C8945A"/>
  <rect x="425" y="54" width="8" height="8" rx="1" fill="#C8945A"/>
  <text x="17"  y="62" font-size="7.5" fill="#3A5A70" font-family="monospace">09  number</text>
  <text x="157" y="62" font-size="7.5" fill="#3A5A70" font-family="monospace">09  number</text>
  <text x="297" y="62" font-size="7.5" fill="#3A5A70" font-family="monospace">09  number</text>
  <text x="437" y="62" font-size="7.5" fill="#3A5A70" font-family="monospace">09  number</text>
  <text x="85"  y="62" font-size="7.5" fill="#C8945A" font-family="monospace">#C8945A</text>
  <text x="225" y="62" font-size="7.5" fill="#C8945A" font-family="monospace">#C8945A</text>
  <text x="365" y="62" font-size="7.5" fill="#C8945A" font-family="monospace">#C8945A</text>
  <text x="505" y="62" font-size="7.5" fill="#C8945A" font-family="monospace">#C8945A</text>

  <!-- ════ base0A  gold  same all ════ -->
  <rect x="0"   y="68" width="140" height="22" fill="#081520"/>
  <rect x="140" y="68" width="140" height="22" fill="#0D1B2A"/>
  <rect x="280" y="68" width="140" height="22" fill="#0A1F2E"/>
  <rect x="420" y="68" width="140" height="22" fill="#0C2030"/>
  <rect x="5"   y="76" width="8" height="8" rx="1" fill="#C8AE6A"/>
  <rect x="145" y="76" width="8" height="8" rx="1" fill="#C8AE6A"/>
  <rect x="285" y="76" width="8" height="8" rx="1" fill="#C8AE6A"/>
  <rect x="425" y="76" width="8" height="8" rx="1" fill="#C8AE6A"/>
  <text x="17"  y="84" font-size="7.5" fill="#3A5A70" font-family="monospace">0A  class</text>
  <text x="157" y="84" font-size="7.5" fill="#3A5A70" font-family="monospace">0A  class</text>
  <text x="297" y="84" font-size="7.5" fill="#3A5A70" font-family="monospace">0A  class</text>
  <text x="437" y="84" font-size="7.5" fill="#3A5A70" font-family="monospace">0A  class</text>
  <text x="85"  y="84" font-size="7.5" fill="#C8AE6A" font-family="monospace">#C8AE6A</text>
  <text x="225" y="84" font-size="7.5" fill="#C8AE6A" font-family="monospace">#C8AE6A</text>
  <text x="365" y="84" font-size="7.5" fill="#C8AE6A" font-family="monospace">#C8AE6A</text>
  <text x="505" y="84" font-size="7.5" fill="#C8AE6A" font-family="monospace">#C8AE6A</text>

  <!-- ════ base0B  seafoam  VARIES ════ -->
  <rect x="0"   y="90" width="140" height="22" fill="#081520"/>
  <rect x="140" y="90" width="140" height="22" fill="#0D1B2A"/>
  <rect x="280" y="90" width="140" height="22" fill="#0A1F2E"/>
  <rect x="420" y="90" width="140" height="22" fill="#0C2030"/>
  <rect x="5"   y="98" width="8" height="8" rx="1" fill="#6AB898"/>
  <rect x="145" y="98" width="8" height="8" rx="1" fill="#72B89A"/>
  <rect x="285" y="98" width="8" height="8" rx="1" fill="#68BE92"/>
  <rect x="425" y="98" width="8" height="8" rx="1" fill="#62BC8A"/>
  <text x="17"  y="106" font-size="7.5" fill="#3A5A70" font-family="monospace">0B  string</text>
  <text x="157" y="106" font-size="7.5" fill="#3A5A70" font-family="monospace">0B  string</text>
  <text x="297" y="106" font-size="7.5" fill="#3A5A70" font-family="monospace">0B  string</text>
  <text x="437" y="106" font-size="7.5" fill="#3A5A70" font-family="monospace">0B  string</text>
  <text x="85"  y="106" font-size="7.5" fill="#6AB898" font-family="monospace">#6AB898</text>
  <text x="225" y="106" font-size="7.5" fill="#72B89A" font-family="monospace">#72B89A</text>
  <text x="365" y="106" font-size="7.5" fill="#68BE92" font-family="monospace">#68BE92</text>
  <text x="505" y="106" font-size="7.5" fill="#62BC8A" font-family="monospace">#62BC8A</text>

  <!-- ════ base0C  aqua  VARIES ════ -->
  <rect x="0"   y="112" width="140" height="22" fill="#081520"/>
  <rect x="140" y="112" width="140" height="22" fill="#0D1B2A"/>
  <rect x="280" y="112" width="140" height="22" fill="#0A1F2E"/>
  <rect x="420" y="112" width="140" height="22" fill="#0C2030"/>
  <rect x="5"   y="120" width="8" height="8" rx="1" fill="#58C0C8"/>
  <rect x="145" y="120" width="8" height="8" rx="1" fill="#6ABDC8"/>
  <rect x="285" y="120" width="8" height="8" rx="1" fill="#50C4C0"/>
  <rect x="425" y="120" width="8" height="8" rx="1" fill="#48C8BC"/>
  <text x="17"  y="128" font-size="7.5" fill="#3A5A70" font-family="monospace">0C  regex</text>
  <text x="157" y="128" font-size="7.5" fill="#3A5A70" font-family="monospace">0C  regex</text>
  <text x="297" y="128" font-size="7.5" fill="#3A5A70" font-family="monospace">0C  regex</text>
  <text x="437" y="128" font-size="7.5" fill="#3A5A70" font-family="monospace">0C  regex</text>
  <text x="85"  y="128" font-size="7.5" fill="#58C0C8" font-family="monospace">#58C0C8</text>
  <text x="225" y="128" font-size="7.5" fill="#6ABDC8" font-family="monospace">#6ABDC8</text>
  <text x="365" y="128" font-size="7.5" fill="#50C4C0" font-family="monospace">#50C4C0</text>
  <text x="505" y="128" font-size="7.5" fill="#48C8BC" font-family="monospace">#48C8BC</text>

  <!-- ════ base0D  blue  VARIES ════ -->
  <rect x="0"   y="134" width="140" height="22" fill="#081520"/>
  <rect x="140" y="134" width="140" height="22" fill="#0D1B2A"/>
  <rect x="280" y="134" width="140" height="22" fill="#0A1F2E"/>
  <rect x="420" y="134" width="140" height="22" fill="#0C2030"/>
  <rect x="5"   y="142" width="8" height="8" rx="1" fill="#7090CC"/>
  <rect x="145" y="142" width="8" height="8" rx="1" fill="#7090CC"/>
  <rect x="285" y="142" width="8" height="8" rx="1" fill="#7896CC"/>
  <rect x="425" y="142" width="8" height="8" rx="1" fill="#7896CC"/>
  <text x="17"  y="150" font-size="7.5" fill="#3A5A70" font-family="monospace">0D  func</text>
  <text x="157" y="150" font-size="7.5" fill="#3A5A70" font-family="monospace">0D  func</text>
  <text x="297" y="150" font-size="7.5" fill="#3A5A70" font-family="monospace">0D  func</text>
  <text x="437" y="150" font-size="7.5" fill="#3A5A70" font-family="monospace">0D  func</text>
  <text x="85"  y="150" font-size="7.5" fill="#7090CC" font-family="monospace">#7090CC</text>
  <text x="225" y="150" font-size="7.5" fill="#7090CC" font-family="monospace">#7090CC</text>
  <text x="365" y="150" font-size="7.5" fill="#7896CC" font-family="monospace">#7896CC</text>
  <text x="505" y="150" font-size="7.5" fill="#7896CC" font-family="monospace">#7896CC</text>

  <!-- ════ base0E  violet  same all ════ -->
  <rect x="0"   y="156" width="140" height="22" fill="#081520"/>
  <rect x="140" y="156" width="140" height="22" fill="#0D1B2A"/>
  <rect x="280" y="156" width="140" height="22" fill="#0A1F2E"/>
  <rect x="420" y="156" width="140" height="22" fill="#0C2030"/>
  <rect x="5"   y="164" width="8" height="8" rx="1" fill="#9A7EC8"/>
  <rect x="145" y="164" width="8" height="8" rx="1" fill="#9A7EC8"/>
  <rect x="285" y="164" width="8" height="8" rx="1" fill="#9A7EC8"/>
  <rect x="425" y="164" width="8" height="8" rx="1" fill="#9A7EC8"/>
  <text x="17"  y="172" font-size="7.5" fill="#3A5A70" font-family="monospace">0E  keyword</text>
  <text x="157" y="172" font-size="7.5" fill="#3A5A70" font-family="monospace">0E  keyword</text>
  <text x="297" y="172" font-size="7.5" fill="#3A5A70" font-family="monospace">0E  keyword</text>
  <text x="437" y="172" font-size="7.5" fill="#3A5A70" font-family="monospace">0E  keyword</text>
  <text x="85"  y="172" font-size="7.5" fill="#9A7EC8" font-family="monospace">#9A7EC8</text>
  <text x="225" y="172" font-size="7.5" fill="#9A7EC8" font-family="monospace">#9A7EC8</text>
  <text x="365" y="172" font-size="7.5" fill="#9A7EC8" font-family="monospace">#9A7EC8</text>
  <text x="505" y="172" font-size="7.5" fill="#9A7EC8" font-family="monospace">#9A7EC8</text>

  <!-- ════ base0F  sienna  same all ════ -->
  <rect x="0"   y="178" width="140" height="22" fill="#081520"/>
  <rect x="140" y="178" width="140" height="22" fill="#0D1B2A"/>
  <rect x="280" y="178" width="140" height="22" fill="#0A1F2E"/>
  <rect x="420" y="178" width="140" height="22" fill="#0C2030"/>
  <rect x="5"   y="186" width="8" height="8" rx="1" fill="#8C6040"/>
  <rect x="145" y="186" width="8" height="8" rx="1" fill="#8C6040"/>
  <rect x="285" y="186" width="8" height="8" rx="1" fill="#8C6040"/>
  <rect x="425" y="186" width="8" height="8" rx="1" fill="#8C6040"/>
  <text x="17"  y="194" font-size="7.5" fill="#3A5A70" font-family="monospace">0F  depr</text>
  <text x="157" y="194" font-size="7.5" fill="#3A5A70" font-family="monospace">0F  depr</text>
  <text x="297" y="194" font-size="7.5" fill="#3A5A70" font-family="monospace">0F  depr</text>
  <text x="437" y="194" font-size="7.5" fill="#3A5A70" font-family="monospace">0F  depr</text>
  <text x="85"  y="194" font-size="7.5" fill="#8C6040" font-family="monospace">#8C6040</text>
  <text x="225" y="194" font-size="7.5" fill="#8C6040" font-family="monospace">#8C6040</text>
  <text x="365" y="194" font-size="7.5" fill="#8C6040" font-family="monospace">#8C6040</text>
  <text x="505" y="194" font-size="7.5" fill="#8C6040" font-family="monospace">#8C6040</text>

  <!-- ════ DIVIDER ════ -->
  <rect x="0" y="200" width="560" height="22" fill="#0A1826"/>
  <text x="280" y="215" text-anchor="middle" font-size="8" fill="#3A6A88" font-family="monospace" letter-spacing="2">base10 → base17  ·  base24  ·  darker floor  +  bright variants</text>

  <!-- ════ base10  floor  VARIES ════ -->
  <rect x="0"   y="222" width="140" height="22" fill="#081520"/>
  <rect x="140" y="222" width="140" height="22" fill="#0D1B2A"/>
  <rect x="280" y="222" width="140" height="22" fill="#0A1F2E"/>
  <rect x="420" y="222" width="140" height="22" fill="#0C2030"/>
  <rect x="5"   y="230" width="8" height="8" rx="1" fill="#050E18"/>
  <rect x="145" y="230" width="8" height="8" rx="1" fill="#081018"/>
  <rect x="285" y="230" width="8" height="8" rx="1" fill="#071420"/>
  <rect x="425" y="230" width="8" height="8" rx="1" fill="#071520"/>
  <text x="17"  y="238" font-size="7.5" fill="#3A5A70" font-family="monospace">10  floor</text>
  <text x="157" y="238" font-size="7.5" fill="#3A5A70" font-family="monospace">10  floor</text>
  <text x="297" y="238" font-size="7.5" fill="#3A5A70" font-family="monospace">10  floor</text>
  <text x="437" y="238" font-size="7.5" fill="#3A5A70" font-family="monospace">10  floor</text>
  <text x="85"  y="238" font-size="7.5" fill="#2A4A68" font-family="monospace">#050E18</text>
  <text x="225" y="238" font-size="7.5" fill="#2A4A68" font-family="monospace">#081018</text>
  <text x="365" y="238" font-size="7.5" fill="#2A4A68" font-family="monospace">#071420</text>
  <text x="505" y="238" font-size="7.5" fill="#2A4A68" font-family="monospace">#071520</text>

  <!-- ════ base11  bright coral  same all ════ -->
  <rect x="0"   y="244" width="140" height="22" fill="#081520"/>
  <rect x="140" y="244" width="140" height="22" fill="#0D1B2A"/>
  <rect x="280" y="244" width="140" height="22" fill="#0A1F2E"/>
  <rect x="420" y="244" width="140" height="22" fill="#0C2030"/>
  <rect x="5"   y="252" width="8" height="8" rx="1" fill="#D08880"/>
  <rect x="145" y="252" width="8" height="8" rx="1" fill="#D08880"/>
  <rect x="285" y="252" width="8" height="8" rx="1" fill="#D08880"/>
  <rect x="425" y="252" width="8" height="8" rx="1" fill="#D08880"/>
  <text x="17"  y="260" font-size="7.5" fill="#3A5A70" font-family="monospace">11  br.error</text>
  <text x="157" y="260" font-size="7.5" fill="#3A5A70" font-family="monospace">11  br.error</text>
  <text x="297" y="260" font-size="7.5" fill="#3A5A70" font-family="monospace">11  br.error</text>
  <text x="437" y="260" font-size="7.5" fill="#3A5A70" font-family="monospace">11  br.error</text>
  <text x="85"  y="260" font-size="7.5" fill="#D08880" font-family="monospace">#D08880</text>
  <text x="225" y="260" font-size="7.5" fill="#D08880" font-family="monospace">#D08880</text>
  <text x="365" y="260" font-size="7.5" fill="#D08880" font-family="monospace">#D08880</text>
  <text x="505" y="260" font-size="7.5" fill="#D08880" font-family="monospace">#D08880</text>

  <!-- ════ base12  bright amber  same all ════ -->
  <rect x="0"   y="266" width="140" height="22" fill="#081520"/>
  <rect x="140" y="266" width="140" height="22" fill="#0D1B2A"/>
  <rect x="280" y="266" width="140" height="22" fill="#0A1F2E"/>
  <rect x="420" y="266" width="140" height="22" fill="#0C2030"/>
  <rect x="5"   y="274" width="8" height="8" rx="1" fill="#D4A870"/>
  <rect x="145" y="274" width="8" height="8" rx="1" fill="#D4A870"/>
  <rect x="285" y="274" width="8" height="8" rx="1" fill="#D4A870"/>
  <rect x="425" y="274" width="8" height="8" rx="1" fill="#D4A870"/>
  <text x="17"  y="282" font-size="7.5" fill="#3A5A70" font-family="monospace">12  br.number</text>
  <text x="157" y="282" font-size="7.5" fill="#3A5A70" font-family="monospace">12  br.number</text>
  <text x="297" y="282" font-size="7.5" fill="#3A5A70" font-family="monospace">12  br.number</text>
  <text x="437" y="282" font-size="7.5" fill="#3A5A70" font-family="monospace">12  br.number</text>
  <text x="85"  y="282" font-size="7.5" fill="#D4A870" font-family="monospace">#D4A870</text>
  <text x="225" y="282" font-size="7.5" fill="#D4A870" font-family="monospace">#D4A870</text>
  <text x="365" y="282" font-size="7.5" fill="#D4A870" font-family="monospace">#D4A870</text>
  <text x="505" y="282" font-size="7.5" fill="#D4A870" font-family="monospace">#D4A870</text>

  <!-- ════ base13  bright gold  same all ════ -->
  <rect x="0"   y="288" width="140" height="22" fill="#081520"/>
  <rect x="140" y="288" width="140" height="22" fill="#0D1B2A"/>
  <rect x="280" y="288" width="140" height="22" fill="#0A1F2E"/>
  <rect x="420" y="288" width="140" height="22" fill="#0C2030"/>
  <rect x="5"   y="296" width="8" height="8" rx="1" fill="#D4BE82"/>
  <rect x="145" y="296" width="8" height="8" rx="1" fill="#D4BE82"/>
  <rect x="285" y="296" width="8" height="8" rx="1" fill="#D4BE82"/>
  <rect x="425" y="296" width="8" height="8" rx="1" fill="#D4BE82"/>
  <text x="17"  y="304" font-size="7.5" fill="#3A5A70" font-family="monospace">13  br.class</text>
  <text x="157" y="304" font-size="7.5" fill="#3A5A70" font-family="monospace">13  br.class</text>
  <text x="297" y="304" font-size="7.5" fill="#3A5A70" font-family="monospace">13  br.class</text>
  <text x="437" y="304" font-size="7.5" fill="#3A5A70" font-family="monospace">13  br.class</text>
  <text x="85"  y="304" font-size="7.5" fill="#D4BE82" font-family="monospace">#D4BE82</text>
  <text x="225" y="304" font-size="7.5" fill="#D4BE82" font-family="monospace">#D4BE82</text>
  <text x="365" y="304" font-size="7.5" fill="#D4BE82" font-family="monospace">#D4BE82</text>
  <text x="505" y="304" font-size="7.5" fill="#D4BE82" font-family="monospace">#D4BE82</text>

  <!-- ════ base14  bright seafoam  VARIES ════ -->
  <rect x="0"   y="310" width="140" height="22" fill="#081520"/>
  <rect x="140" y="310" width="140" height="22" fill="#0D1B2A"/>
  <rect x="280" y="310" width="140" height="22" fill="#0A1F2E"/>
  <rect x="420" y="310" width="140" height="22" fill="#0C2030"/>
  <rect x="5"   y="318" width="8" height="8" rx="1" fill="#82CCB0"/>
  <rect x="145" y="318" width="8" height="8" rx="1" fill="#88CCAE"/>
  <rect x="285" y="318" width="8" height="8" rx="1" fill="#80CCAA"/>
  <rect x="425" y="318" width="8" height="8" rx="1" fill="#7CCCA4"/>
  <text x="17"  y="326" font-size="7.5" fill="#3A5A70" font-family="monospace">14  br.string</text>
  <text x="157" y="326" font-size="7.5" fill="#3A5A70" font-family="monospace">14  br.string</text>
  <text x="297" y="326" font-size="7.5" fill="#3A5A70" font-family="monospace">14  br.string</text>
  <text x="437" y="326" font-size="7.5" fill="#3A5A70" font-family="monospace">14  br.string</text>
  <text x="85"  y="326" font-size="7.5" fill="#82CCB0" font-family="monospace">#82CCB0</text>
  <text x="225" y="326" font-size="7.5" fill="#88CCAE" font-family="monospace">#88CCAE</text>
  <text x="365" y="326" font-size="7.5" fill="#80CCAA" font-family="monospace">#80CCAA</text>
  <text x="505" y="326" font-size="7.5" fill="#7CCCA4" font-family="monospace">#7CCCA4</text>

  <!-- ════ base15  bright aqua  VARIES ════ -->
  <rect x="0"   y="332" width="140" height="22" fill="#081520"/>
  <rect x="140" y="332" width="140" height="22" fill="#0D1B2A"/>
  <rect x="280" y="332" width="140" height="22" fill="#0A1F2E"/>
  <rect x="420" y="332" width="140" height="22" fill="#0C2030"/>
  <rect x="5"   y="340" width="8" height="8" rx="1" fill="#72D0D8"/>
  <rect x="145" y="340" width="8" height="8" rx="1" fill="#80CDD8"/>
  <rect x="285" y="340" width="8" height="8" rx="1" fill="#68D4D0"/>
  <rect x="425" y="340" width="8" height="8" rx="1" fill="#62D8D0"/>
  <text x="17"  y="348" font-size="7.5" fill="#3A5A70" font-family="monospace">15  br.regex</text>
  <text x="157" y="348" font-size="7.5" fill="#3A5A70" font-family="monospace">15  br.regex</text>
  <text x="297" y="348" font-size="7.5" fill="#3A5A70" font-family="monospace">15  br.regex</text>
  <text x="437" y="348" font-size="7.5" fill="#3A5A70" font-family="monospace">15  br.regex</text>
  <text x="85"  y="348" font-size="7.5" fill="#72D0D8" font-family="monospace">#72D0D8</text>
  <text x="225" y="348" font-size="7.5" fill="#80CDD8" font-family="monospace">#80CDD8</text>
  <text x="365" y="348" font-size="7.5" fill="#68D4D0" font-family="monospace">#68D4D0</text>
  <text x="505" y="348" font-size="7.5" fill="#62D8D0" font-family="monospace">#62D8D0</text>

  <!-- ════ base16  bright blue  VARIES ════ -->
  <rect x="0"   y="354" width="140" height="22" fill="#081520"/>
  <rect x="140" y="354" width="140" height="22" fill="#0D1B2A"/>
  <rect x="280" y="354" width="140" height="22" fill="#0A1F2E"/>
  <rect x="420" y="354" width="140" height="22" fill="#0C2030"/>
  <rect x="5"   y="362" width="8" height="8" rx="1" fill="#8AAAD8"/>
  <rect x="145" y="362" width="8" height="8" rx="1" fill="#8AAAD8"/>
  <rect x="285" y="362" width="8" height="8" rx="1" fill="#90AED8"/>
  <rect x="425" y="362" width="8" height="8" rx="1" fill="#90AED8"/>
  <text x="17"  y="370" font-size="7.5" fill="#3A5A70" font-family="monospace">16  br.func</text>
  <text x="157" y="370" font-size="7.5" fill="#3A5A70" font-family="monospace">16  br.func</text>
  <text x="297" y="370" font-size="7.5" fill="#3A5A70" font-family="monospace">16  br.func</text>
  <text x="437" y="370" font-size="7.5" fill="#3A5A70" font-family="monospace">16  br.func</text>
  <text x="85"  y="370" font-size="7.5" fill="#8AAAD8" font-family="monospace">#8AAAD8</text>
  <text x="225" y="370" font-size="7.5" fill="#8AAAD8" font-family="monospace">#8AAAD8</text>
  <text x="365" y="370" font-size="7.5" fill="#90AED8" font-family="monospace">#90AED8</text>
  <text x="505" y="370" font-size="7.5" fill="#90AED8" font-family="monospace">#90AED8</text>

  <!-- ════ base17  bright violet  same all ════ -->
  <rect x="0"   y="376" width="140" height="22" fill="#081520"/>
  <rect x="140" y="376" width="140" height="22" fill="#0D1B2A"/>
  <rect x="280" y="376" width="140" height="22" fill="#0A1F2E"/>
  <rect x="420" y="376" width="140" height="22" fill="#0C2030"/>
  <rect x="5"   y="384" width="8" height="8" rx="1" fill="#AE96D4"/>
  <rect x="145" y="384" width="8" height="8" rx="1" fill="#AE96D4"/>
  <rect x="285" y="384" width="8" height="8" rx="1" fill="#AE96D4"/>
  <rect x="425" y="384" width="8" height="8" rx="1" fill="#AE96D4"/>
  <text x="17"  y="392" font-size="7.5" fill="#3A5A70" font-family="monospace">17  br.keyword</text>
  <text x="157" y="392" font-size="7.5" fill="#3A5A70" font-family="monospace">17  br.keyword</text>
  <text x="297" y="392" font-size="7.5" fill="#3A5A70" font-family="monospace">17  br.keyword</text>
  <text x="437" y="392" font-size="7.5" fill="#3A5A70" font-family="monospace">17  br.keyword</text>
  <text x="85"  y="392" font-size="7.5" fill="#AE96D4" font-family="monospace">#AE96D4</text>
  <text x="225" y="392" font-size="7.5" fill="#AE96D4" font-family="monospace">#AE96D4</text>
  <text x="365" y="392" font-size="7.5" fill="#AE96D4" font-family="monospace">#AE96D4</text>
  <text x="505" y="392" font-size="7.5" fill="#AE96D4" font-family="monospace">#AE96D4</text>

</svg>
