<svg xmlns="http://www.w3.org/2000/svg" width="560" height="285" viewBox="0 0 560 285">

  <!-- ══ Trench  base00 #081520  base01 #0F2235  base02 #182C3E  base03 #20364A  base04 #4C6A88  base05 #BED0E2  base06 #DCE0E8  base07 #EEF0F4 ══ -->
  <rect x="0" y="0"   width="140" height="28" fill="#0F2235"/>
  <text x="70" y="10" text-anchor="middle" font-size="7"  fill="#2A4A62"  font-family="monospace" letter-spacing="1">base01</text>
  <text x="70" y="23" text-anchor="middle" font-size="9"  fill="#4C6A88"  font-family="monospace">panel / sidebar</text>
  <rect x="0" y="28"  width="140" height="14" fill="#182C3E"/>
  <text x="70" y="39" text-anchor="middle" font-size="7"  fill="#3A6275"  font-family="monospace" letter-spacing="1">base02  ·  selection</text>
  <rect x="0" y="42"  width="140" height="14" fill="#20364A"/>
  <text x="70" y="53" text-anchor="middle" font-size="7"  fill="#4A7A90"  font-family="monospace" letter-spacing="1">base03  ·  line highlight</text>
  <rect x="0" y="56"  width="140" height="112" fill="#081520"/>
  <text x="70" y="104" text-anchor="middle" font-size="34" fill="#BED0E2" font-family="monospace" font-weight="bold">Aa</text>
  <text x="70" y="132" text-anchor="middle" font-size="10" fill="#BED0E2" font-family="monospace">Sample text</text>
  <text x="70" y="148" text-anchor="middle" font-size="9"  fill="#20364A" font-family="monospace">// comment</text>
  <rect x="0" y="168" width="140" height="1" fill="#0F2235"/>
  <text x="70" y="182" text-anchor="middle" font-size="11" fill="#3A5A6E"  font-family="monospace">Trench</text>
  <text x="70" y="194" text-anchor="middle" font-size="9"  fill="#2A4050"  font-family="monospace">base00  #081520</text>
  <text x="70" y="205" text-anchor="middle" font-size="9"  fill="#2A4A62"  font-family="monospace">base01  #0F2235</text>
  <text x="70" y="216" text-anchor="middle" font-size="9"  fill="#3A607A"  font-family="monospace">base02  #182C3E</text>
  <text x="70" y="227" text-anchor="middle" font-size="9"  fill="#4A7A90"  font-family="monospace">base03  #20364A</text>
  <text x="70" y="238" text-anchor="middle" font-size="9"  fill="#4C6A88"  font-family="monospace">base04  #4C6A88</text>
  <text x="70" y="249" text-anchor="middle" font-size="9"  fill="#BED0E2"  font-family="monospace">base05  #BED0E2</text>
  <text x="70" y="260" text-anchor="middle" font-size="9"  fill="#DCE0E8"  font-family="monospace">base06  #DCE0E8</text>
  <text x="70" y="271" text-anchor="middle" font-size="9"  fill="#EEF0F4"  font-family="monospace">base07  #EEF0F4</text>
  <rect x="30" y="279" width="22" height="6" rx="2" fill="#4C6A88"/>
  <rect x="56" y="279" width="22" height="6" rx="2" fill="#BED0E2"/>
  <rect x="82" y="279" width="22" height="6" rx="2" fill="#DCE0E8"/>
  <rect x="108" y="279" width="22" height="6" rx="2" fill="#EEF0F4"/>

  <!-- ══ Hadal ★  base00 #0D1B2A  base01 #162A40  base02 #1E3652  base03 #243C5A  base04 #4E6E8C  base05 #C8D8E8  base06 #D8E2EE  base07 #EDF1F6 ══ -->
  <rect x="140" y="0"   width="140" height="28" fill="#162A40"/>
  <text x="210" y="10" text-anchor="middle" font-size="7"  fill="#3A8AAA"  font-family="monospace" letter-spacing="1">base01  ★</text>
  <text x="210" y="23" text-anchor="middle" font-size="9"  fill="#4E6E8C"  font-family="monospace">panel / sidebar</text>
  <rect x="140" y="28"  width="140" height="14" fill="#1E3652"/>
  <text x="210" y="39" text-anchor="middle" font-size="7"  fill="#4A88AA"  font-family="monospace" letter-spacing="1">base02  ·  selection  ★</text>
  <rect x="140" y="42"  width="140" height="14" fill="#243C5A"/>
  <text x="210" y="53" text-anchor="middle" font-size="7"  fill="#5A98B8"  font-family="monospace" letter-spacing="1">base03  ·  line highlight  ★</text>
  <rect x="140" y="56"  width="140" height="112" fill="#0D1B2A"/>
  <text x="210" y="104" text-anchor="middle" font-size="34" fill="#C8D8E8" font-family="monospace" font-weight="bold">Aa</text>
  <text x="210" y="132" text-anchor="middle" font-size="10" fill="#C8D8E8" font-family="monospace">Sample text</text>
  <text x="210" y="148" text-anchor="middle" font-size="9"  fill="#243C5A" font-family="monospace">// comment</text>
  <rect x="140" y="168" width="140" height="1" fill="#162A40"/>
  <text x="210" y="182" text-anchor="middle" font-size="11" fill="#5A9ABF"  font-family="monospace">Hadal</text>
  <text x="210" y="194" text-anchor="middle" font-size="9"  fill="#3A6A80"  font-family="monospace">base00  #0D1B2A</text>
  <text x="210" y="205" text-anchor="middle" font-size="9"  fill="#3A6A80"  font-family="monospace">base01  #162A40</text>
  <text x="210" y="216" text-anchor="middle" font-size="9"  fill="#4A7A9A"  font-family="monospace">base02  #1E3652</text>
  <text x="210" y="227" text-anchor="middle" font-size="9"  fill="#5A90B0"  font-family="monospace">base03  #243C5A</text>
  <text x="210" y="238" text-anchor="middle" font-size="9"  fill="#4E6E8C"  font-family="monospace">base04  #4E6E8C</text>
  <text x="210" y="249" text-anchor="middle" font-size="9"  fill="#C8D8E8"  font-family="monospace">base05  #C8D8E8</text>
  <text x="210" y="260" text-anchor="middle" font-size="9"  fill="#D8E2EE"  font-family="monospace">base06  #D8E2EE</text>
  <text x="210" y="271" text-anchor="middle" font-size="9"  fill="#EDF1F6"  font-family="monospace">base07  #EDF1F6</text>
  <rect x="170" y="279" width="22" height="6" rx="2" fill="#4E6E8C"/>
  <rect x="196" y="279" width="22" height="6" rx="2" fill="#C8D8E8"/>
  <rect x="222" y="279" width="22" height="6" rx="2" fill="#D8E2EE"/>
  <rect x="248" y="279" width="22" height="6" rx="2" fill="#EDF1F6"/>

  <!-- ══ Pelagic  base00 #0A1F2E  base01 #142C3E  base02 #1C3A50  base03 #24425C  base04 #4A6E86  base05 #C6D8E4  base06 #D6E2E8  base07 #ECF0F4 ══ -->
  <rect x="280" y="0"   width="140" height="28" fill="#142C3E"/>
  <text x="350" y="10" text-anchor="middle" font-size="7"  fill="#2A4A62"  font-family="monospace" letter-spacing="1">base01</text>
  <text x="350" y="23" text-anchor="middle" font-size="9"  fill="#4A6E86"  font-family="monospace">panel / sidebar</text>
  <rect x="280" y="28"  width="140" height="14" fill="#1C3A50"/>
  <text x="350" y="39" text-anchor="middle" font-size="7"  fill="#3A6275"  font-family="monospace" letter-spacing="1">base02  ·  selection</text>
  <rect x="280" y="42"  width="140" height="14" fill="#24425C"/>
  <text x="350" y="53" text-anchor="middle" font-size="7"  fill="#4A7A90"  font-family="monospace" letter-spacing="1">base03  ·  line highlight</text>
  <rect x="280" y="56"  width="140" height="112" fill="#0A1F2E"/>
  <text x="350" y="104" text-anchor="middle" font-size="34" fill="#C6D8E4" font-family="monospace" font-weight="bold">Aa</text>
  <text x="350" y="132" text-anchor="middle" font-size="10" fill="#C6D8E4" font-family="monospace">Sample text</text>
  <text x="350" y="148" text-anchor="middle" font-size="9"  fill="#24425C" font-family="monospace">// comment</text>
  <rect x="280" y="168" width="140" height="1" fill="#142C3E"/>
  <text x="350" y="182" text-anchor="middle" font-size="11" fill="#3A5A6E"  font-family="monospace">Pelagic</text>
  <text x="350" y="194" text-anchor="middle" font-size="9"  fill="#2A4050"  font-family="monospace">base00  #0A1F2E</text>
  <text x="350" y="205" text-anchor="middle" font-size="9"  fill="#2A4A62"  font-family="monospace">base01  #142C3E</text>
  <text x="350" y="216" text-anchor="middle" font-size="9"  fill="#3A607A"  font-family="monospace">base02  #1C3A50</text>
  <text x="350" y="227" text-anchor="middle" font-size="9"  fill="#4A7A90"  font-family="monospace">base03  #24425C</text>
  <text x="350" y="238" text-anchor="middle" font-size="9"  fill="#4A6E86"  font-family="monospace">base04  #4A6E86</text>
  <text x="350" y="249" text-anchor="middle" font-size="9"  fill="#C6D8E4"  font-family="monospace">base05  #C6D8E4</text>
  <text x="350" y="260" text-anchor="middle" font-size="9"  fill="#D6E2E8"  font-family="monospace">base06  #D6E2E8</text>
  <text x="350" y="271" text-anchor="middle" font-size="9"  fill="#ECF0F4"  font-family="monospace">base07  #ECF0F4</text>
  <rect x="310" y="279" width="22" height="6" rx="2" fill="#4A6E86"/>
  <rect x="336" y="279" width="22" height="6" rx="2" fill="#C6D8E4"/>
  <rect x="362" y="279" width="22" height="6" rx="2" fill="#D6E2E8"/>
  <rect x="388" y="279" width="22" height="6" rx="2" fill="#ECF0F4"/>

  <!-- ══ Benthic  base00 #0C2030  base01 #162E42  base02 #1E3C54  base03 #26445E  base04 #4A7080  base05 #C8DAE2  base06 #D6E4E8  base07 #ECF1F3 ══ -->
  <rect x="420" y="0"   width="140" height="28" fill="#162E42"/>
  <text x="490" y="10" text-anchor="middle" font-size="7"  fill="#2A4A62"  font-family="monospace" letter-spacing="1">base01</text>
  <text x="490" y="23" text-anchor="middle" font-size="9"  fill="#4A7080"  font-family="monospace">panel / sidebar</text>
  <rect x="420" y="28"  width="140" height="14" fill="#1E3C54"/>
  <text x="490" y="39" text-anchor="middle" font-size="7"  fill="#3A6275"  font-family="monospace" letter-spacing="1">base02  ·  selection</text>
  <rect x="420" y="42"  width="140" height="14" fill="#26445E"/>
  <text x="490" y="53" text-anchor="middle" font-size="7"  fill="#4A7A90"  font-family="monospace" letter-spacing="1">base03  ·  line highlight</text>
  <rect x="420" y="56"  width="140" height="112" fill="#0C2030"/>
  <text x="490" y="104" text-anchor="middle" font-size="34" fill="#C8DAE2" font-family="monospace" font-weight="bold">Aa</text>
  <text x="490" y="132" text-anchor="middle" font-size="10" fill="#C8DAE2" font-family="monospace">Sample text</text>
  <text x="490" y="148" text-anchor="middle" font-size="9"  fill="#26445E" font-family="monospace">// comment</text>
  <rect x="420" y="168" width="140" height="1" fill="#162E42"/>
  <text x="490" y="182" text-anchor="middle" font-size="11" fill="#3A5A6E"  font-family="monospace">Benthic</text>
  <text x="490" y="194" text-anchor="middle" font-size="9"  fill="#2A4050"  font-family="monospace">base00  #0C2030</text>
  <text x="490" y="205" text-anchor="middle" font-size="9"  fill="#2A4A62"  font-family="monospace">base01  #162E42</text>
  <text x="490" y="216" text-anchor="middle" font-size="9"  fill="#3A607A"  font-family="monospace">base02  #1E3C54</text>
  <text x="490" y="227" text-anchor="middle" font-size="9"  fill="#4A7A90"  font-family="monospace">base03  #26445E</text>
  <text x="490" y="238" text-anchor="middle" font-size="9"  fill="#4A7080"  font-family="monospace">base04  #4A7080</text>
  <text x="490" y="249" text-anchor="middle" font-size="9"  fill="#C8DAE2"  font-family="monospace">base05  #C8DAE2</text>
  <text x="490" y="260" text-anchor="middle" font-size="9"  fill="#D6E4E8"  font-family="monospace">base06  #D6E4E8</text>
  <text x="490" y="271" text-anchor="middle" font-size="9"  fill="#ECF1F3"  font-family="monospace">base07  #ECF1F3</text>
  <rect x="450" y="279" width="22" height="6" rx="2" fill="#4A7080"/>
  <rect x="476" y="279" width="22" height="6" rx="2" fill="#C8DAE2"/>
  <rect x="502" y="279" width="22" height="6" rx="2" fill="#D6E4E8"/>
  <rect x="528" y="279" width="22" height="6" rx="2" fill="#ECF1F3"/>

</svg>
