<svg xmlns="http://www.w3.org/2000/svg" width="1600" height="980" viewBox="0 0 1600 980">
  <defs>
    <style>
      .mono { font-family: "SF Mono", "JetBrains Mono", "Menlo", monospace; }
      .tiny { font-size: 11px; }
      .small { font-size: 13px; }
      .body { font-size: 15px; }
      .title { font-size: 18px; font-weight: 700; }
    </style>
  </defs>

  <!-- Canvas -->
  <rect x="0" y="0" width="1600" height="980" fill="#081520"/>

  <!-- App Frame -->
  <rect x="24" y="24" width="1552" height="932" rx="12" fill="#0F2235"/>
  <rect x="24" y="24" width="1552" height="38" rx="12" fill="#182C3E"/>
  <text x="48" y="48" class="mono small" fill="#BED0E2">simhae trench preview</text>
  <circle cx="1518" cy="44" r="6" fill="#C47A72"/>
  <circle cx="1498" cy="44" r="6" fill="#C8AE6A"/>
  <circle cx="1478" cy="44" r="6" fill="#6AB898"/>

  <!-- Sidebar -->
  <rect x="40" y="76" width="250" height="860" fill="#0F2235"/>
  <text x="56" y="102" class="mono body" fill="#8AAAD8">PROJECT</text>
  <text x="56" y="132" class="mono small" fill="#BED0E2">simhae/</text>
  <text x="72" y="154" class="mono small" fill="#4C6A88">notes.md</text>
  <text x="72" y="176" class="mono small" fill="#4C6A88">palette.svg</text>
  <text x="72" y="198" class="mono small" fill="#4C6A88">accents.svg</text>
  <rect x="56" y="212" width="214" height="24" rx="4" fill="#182C3E"/>
  <text x="72" y="229" class="mono small" fill="#BED0E2">simhae.yaml</text>
  <text x="72" y="252" class="mono small" fill="#58C0C8">simhae-preview.svg</text>
  <text x="56" y="292" class="mono body" fill="#8AAAD8">GIT</text>
  <text x="56" y="318" class="mono small" fill="#6AB898">M simhae.yaml</text>
  <text x="56" y="340" class="mono small" fill="#58C0C8">A simhae-preview.svg</text>
  <text x="56" y="362" class="mono small" fill="#C47A72">D old-preview.svg</text>

  <!-- Main Header / Tabs -->
  <rect x="306" y="76" width="1254" height="48" fill="#0F2235"/>
  <rect x="320" y="84" width="190" height="32" rx="6" fill="#182C3E"/>
  <text x="336" y="105" class="mono small" fill="#4C6A88">notes.md</text>
  <rect x="516" y="84" width="210" height="32" rx="6" fill="#20364A"/>
  <text x="532" y="105" class="mono small" fill="#BED0E2">simhae.yaml</text>
  <rect x="732" y="84" width="250" height="32" rx="6" fill="#182C3E"/>
  <text x="748" y="105" class="mono small" fill="#58C0C8">simhae-preview.svg</text>
  <text x="1508" y="105" class="mono tiny" fill="#DCE0E8">UTF-8  LF  Trench</text>

  <!-- Editor Pane -->
  <rect x="306" y="136" width="860" height="530" fill="#081520"/>
  <rect x="306" y="136" width="56" height="530" fill="#0F2235"/>
  <rect x="362" y="184" width="804" height="24" fill="#182C3E"/>
  <text x="322" y="164" class="mono tiny" fill="#4C6A88">1</text>
  <text x="322" y="188" class="mono tiny" fill="#4C6A88">2</text>
  <text x="322" y="212" class="mono tiny" fill="#4C6A88">3</text>
  <text x="322" y="236" class="mono tiny" fill="#4C6A88">4</text>
  <text x="322" y="260" class="mono tiny" fill="#4C6A88">5</text>
  <text x="322" y="284" class="mono tiny" fill="#4C6A88">6</text>
  <text x="322" y="308" class="mono tiny" fill="#4C6A88">7</text>
  <text x="322" y="332" class="mono tiny" fill="#4C6A88">8</text>

  <text x="372" y="164" class="mono small" fill="#4C6A88"># simhae extended theme</text>
  <text x="372" y="188" class="mono small" fill="#9A7EC8">extended</text>
  <text x="436" y="188" class="mono small" fill="#BED0E2">:</text>
  <text x="372" y="212" class="mono small" fill="#BED0E2">added</text>
  <text x="430" y="212" class="mono small" fill="#BED0E2">:</text>
  <text x="446" y="212" class="mono small" fill="#6AB898">"#6AB898"</text>
  <text x="372" y="236" class="mono small" fill="#BED0E2">removed</text>
  <text x="446" y="236" class="mono small" fill="#BED0E2">:</text>
  <text x="462" y="236" class="mono small" fill="#C47A72">"#C47A72"</text>
  <text x="372" y="260" class="mono small" fill="#BED0E2">keyword</text>
  <text x="446" y="260" class="mono small" fill="#BED0E2">:</text>
  <text x="462" y="260" class="mono small" fill="#9A7EC8">"#9A7EC8"</text>
  <text x="372" y="284" class="mono small" fill="#BED0E2">string</text>
  <text x="430" y="284" class="mono small" fill="#BED0E2">:</text>
  <text x="446" y="284" class="mono small" fill="#6AB898">"#6AB898"</text>
  <text x="372" y="308" class="mono small" fill="#BED0E2">function</text>
  <text x="446" y="308" class="mono small" fill="#BED0E2">:</text>
  <text x="462" y="308" class="mono small" fill="#7090CC">"#7090CC"</text>
  <text x="372" y="332" class="mono small" fill="#BED0E2">comment</text>
  <text x="446" y="332" class="mono small" fill="#BED0E2">:</text>
  <text x="462" y="332" class="mono small" fill="#4C6A88">"#4C6A88"</text>

  <!-- Splitter -->
  <rect x="1166" y="136" width="2" height="530" fill="#20364A"/>

  <!-- Diff Pane -->
  <rect x="1168" y="136" width="392" height="530" fill="#0F2235"/>
  <rect x="1168" y="136" width="392" height="34" fill="#7090CC"/>
  <text x="1182" y="159" class="mono small" fill="#050E18">diff --git a/simhae.yaml b/simhae.yaml</text>
  <rect x="1168" y="176" width="392" height="24" fill="#8AAAD8"/>
  <text x="1182" y="193" class="mono tiny" fill="#050E18">@@ -34,7 +34,13 @@ extended:</text>

  <rect x="1168" y="206" width="392" height="24" fill="#0F2235"/>
  <text x="1182" y="223" class="mono tiny" fill="#BED0E2"> context line: keep this value</text>

  <rect x="1168" y="232" width="392" height="24" fill="#0F2235"/>
  <rect x="1294" y="236" width="90" height="16" fill="#82CCB0"/>
  <text x="1182" y="249" class="mono tiny" fill="#6AB898">+ added: "#6AB898"</text>

  <rect x="1168" y="258" width="392" height="24" fill="#182C3E"/>
  <rect x="1312" y="262" width="96" height="16" fill="#D08880"/>
  <text x="1182" y="275" class="mono tiny" fill="#C47A72">- removed: "#C06060"</text>

  <rect x="1168" y="284" width="392" height="24" fill="#0F2235"/>
  <rect x="1312" y="288" width="96" height="16" fill="#82CCB0"/>
  <text x="1182" y="301" class="mono tiny" fill="#6AB898">+ removed: "#C47A72"</text>

  <rect x="1168" y="316" width="392" height="350" fill="#0F2235"/>
  <text x="1182" y="338" class="mono tiny" fill="#4C6A88">no newline at end of file</text>
  <text x="1182" y="362" class="mono tiny" fill="#C8AE6A">warning: duplicate key check pending</text>
  <text x="1182" y="386" class="mono tiny" fill="#58C0C8">hint: keep bg shades under 12% lightness</text>

  <!-- Status Chips -->
  <rect x="306" y="678" width="860" height="48" fill="#0F2235"/>
  <rect x="320" y="690" width="120" height="24" rx="12" fill="#7090CC"/>
  <text x="352" y="706" class="mono tiny" fill="#050E18">INFO</text>
  <rect x="448" y="690" width="120" height="24" rx="12" fill="#C8AE6A"/>
  <text x="475" y="706" class="mono tiny" fill="#050E18">WARNING</text>
  <rect x="576" y="690" width="120" height="24" rx="12" fill="#C47A72"/>
  <text x="614" y="706" class="mono tiny" fill="#050E18">ERROR</text>
  <rect x="704" y="690" width="120" height="24" rx="12" fill="#58C0C8"/>
  <text x="745" y="706" class="mono tiny" fill="#050E18">HINT</text>
  <rect x="832" y="690" width="120" height="24" rx="12" fill="#6AB898"/>
  <text x="865" y="706" class="mono tiny" fill="#050E18">SUCCESS</text>
  <text x="966" y="706" class="mono tiny" fill="#BED0E2">prompt&gt; trench theme active</text>

  <!-- Swatch Board -->
  <rect x="306" y="736" width="1254" height="200" fill="#0F2235"/>
  <text x="320" y="758" class="mono body" fill="#BED0E2">Base00-Base17</text>

  <!-- base swatches -->
  <g class="mono tiny" fill="#BED0E2">
    <rect x="320" y="770" width="22" height="18" fill="#081520"/><text x="348" y="783">base00 #081520</text>
    <rect x="500" y="770" width="22" height="18" fill="#0F2235"/><text x="528" y="783">base01 #0F2235</text>
    <rect x="680" y="770" width="22" height="18" fill="#182C3E"/><text x="708" y="783">base02 #182C3E</text>
    <rect x="860" y="770" width="22" height="18" fill="#20364A"/><text x="888" y="783">base03 #20364A</text>
    <rect x="1040" y="770" width="22" height="18" fill="#4C6A88"/><text x="1068" y="783">base04 #4C6A88</text>
    <rect x="1220" y="770" width="22" height="18" fill="#BED0E2"/><text x="1248" y="783">base05 #BED0E2</text>
    <rect x="1400" y="770" width="22" height="18" fill="#DCE0E8"/><text x="1428" y="783">base06 #DCE0E8</text>

    <rect x="320" y="796" width="22" height="18" fill="#EEF0F4"/><text x="348" y="809">base07 #EEF0F4</text>
    <rect x="500" y="796" width="22" height="18" fill="#C47A72"/><text x="528" y="809">base08 #C47A72</text>
    <rect x="680" y="796" width="22" height="18" fill="#C8945A"/><text x="708" y="809">base09 #C8945A</text>
    <rect x="860" y="796" width="22" height="18" fill="#C8AE6A"/><text x="888" y="809">base0A #C8AE6A</text>
    <rect x="1040" y="796" width="22" height="18" fill="#6AB898"/><text x="1068" y="809">base0B #6AB898</text>
    <rect x="1220" y="796" width="22" height="18" fill="#58C0C8"/><text x="1248" y="809">base0C #58C0C8</text>
    <rect x="1400" y="796" width="22" height="18" fill="#7090CC"/><text x="1428" y="809">base0D #7090CC</text>

    <rect x="320" y="822" width="22" height="18" fill="#9A7EC8"/><text x="348" y="835">base0E #9A7EC8</text>
    <rect x="500" y="822" width="22" height="18" fill="#8C6040"/><text x="528" y="835">base0F #8C6040</text>
    <rect x="680" y="822" width="22" height="18" fill="#050E18"/><text x="708" y="835">base10 #050E18</text>
    <rect x="860" y="822" width="22" height="18" fill="#D08880"/><text x="888" y="835">base11 #D08880</text>
    <rect x="1040" y="822" width="22" height="18" fill="#D4A870"/><text x="1068" y="835">base12 #D4A870</text>
    <rect x="1220" y="822" width="22" height="18" fill="#D4BE82"/><text x="1248" y="835">base13 #D4BE82</text>
    <rect x="1400" y="822" width="22" height="18" fill="#82CCB0"/><text x="1428" y="835">base14 #82CCB0</text>

    <rect x="320" y="848" width="22" height="18" fill="#72D0D8"/><text x="348" y="861">base15 #72D0D8</text>
    <rect x="500" y="848" width="22" height="18" fill="#8AAAD8"/><text x="528" y="861">base16 #8AAAD8</text>
    <rect x="680" y="848" width="22" height="18" fill="#AE96D4"/><text x="708" y="861">base17 #AE96D4</text>
  </g>

  <text x="900" y="861" class="mono tiny" fill="#BED0E2">
    extended roles visible in UI: background foreground muted cursor selection added removed modified
  </text>
  <text x="900" y="878" class="mono tiny" fill="#BED0E2">
    renamed copied untracked ignored conflict hunk_header file_header line_number context separator
  </text>
  <text x="900" y="895" class="mono tiny" fill="#BED0E2">
    added_emphasis removed_emphasis added_bg removed_bg modified_bg added_inline removed_inline
  </text>
  <text x="900" y="912" class="mono tiny" fill="#BED0E2">
    info warning error hint success keyword string function type variable comment link match
  </text>
  <text x="900" y="929" class="mono tiny" fill="#BED0E2">
    search_highlight fold whitespace trailing_whitespace nontext accent accent_alt prompt tab_active tab_inactive
  </text>
</svg>
