<svg xmlns="http://www.w3.org/2000/svg" width="560" height="685" viewBox="0 0 560 685">

  <!-- ════════════════════════════════════════════════════════════
       NEUTRAL SCALE  base00 – base07
       ════════════════════════════════════════════════════════════ -->

  <!-- ══ Trench ══ -->
  <rect x="0" y="0"   width="140" height="28" fill="#0F2235"/>
  <text x="70" y="10" text-anchor="middle" font-size="7"  fill="#2A4A62"  font-family="monospace" letter-spacing="1">base01</text>
  <text x="70" y="23" text-anchor="middle" font-size="9"  fill="#4C6A88"  font-family="monospace">panel / sidebar</text>
  <rect x="0" y="28"  width="140" height="14" fill="#182C3E"/>
  <text x="70" y="39" text-anchor="middle" font-size="7"  fill="#3A6275"  font-family="monospace" letter-spacing="1">base02  ·  selection</text>
  <rect x="0" y="42"  width="140" height="14" fill="#20364A"/>
  <text x="70" y="53" text-anchor="middle" font-size="7"  fill="#4A7A90"  font-family="monospace" letter-spacing="1">base03  ·  line highlight</text>
  <rect x="0" y="56"  width="140" height="112" fill="#081520"/>
  <text x="70" y="104" text-anchor="middle" font-size="34" fill="#BED0E2" font-family="monospace" font-weight="bold">Aa</text>
  <text x="70" y="132" text-anchor="middle" font-size="10" fill="#BED0E2" font-family="monospace">Sample text</text>
  <text x="70" y="148" text-anchor="middle" font-size="9"  fill="#20364A" font-family="monospace">// comment</text>
  <rect x="0" y="168" width="140" height="1" fill="#0F2235"/>
  <text x="70" y="182" text-anchor="middle" font-size="11" fill="#3A5A6E"  font-family="monospace">Trench</text>
  <text x="70" y="194" text-anchor="middle" font-size="9"  fill="#2A4050"  font-family="monospace">base00  #081520</text>
  <text x="70" y="205" text-anchor="middle" font-size="9"  fill="#2A4A62"  font-family="monospace">base01  #0F2235</text>
  <text x="70" y="216" text-anchor="middle" font-size="9"  fill="#3A607A"  font-family="monospace">base02  #182C3E</text>
  <text x="70" y="227" text-anchor="middle" font-size="9"  fill="#4A7A90"  font-family="monospace">base03  #20364A</text>
  <text x="70" y="238" text-anchor="middle" font-size="9"  fill="#4C6A88"  font-family="monospace">base04  #4C6A88</text>
  <text x="70" y="249" text-anchor="middle" font-size="9"  fill="#BED0E2"  font-family="monospace">base05  #BED0E2</text>
  <text x="70" y="260" text-anchor="middle" font-size="9"  fill="#DCE0E8"  font-family="monospace">base06  #DCE0E8</text>
  <text x="70" y="271" text-anchor="middle" font-size="9"  fill="#EEF0F4"  font-family="monospace">base07  #EEF0F4</text>
  <rect x="30"  y="279" width="22" height="6" rx="2" fill="#4C6A88"/>
  <rect x="56"  y="279" width="22" height="6" rx="2" fill="#BED0E2"/>
  <rect x="82"  y="279" width="22" height="6" rx="2" fill="#DCE0E8"/>
  <rect x="108" y="279" width="22" height="6" rx="2" fill="#EEF0F4"/>

  <!-- ══ Hadal ★ ══ -->
  <rect x="140" y="0"   width="140" height="28" fill="#162A40"/>
  <text x="210" y="10" text-anchor="middle" font-size="7"  fill="#3A8AAA"  font-family="monospace" letter-spacing="1">base01  ★</text>
  <text x="210" y="23" text-anchor="middle" font-size="9"  fill="#4E6E8C"  font-family="monospace">panel / sidebar</text>
  <rect x="140" y="28"  width="140" height="14" fill="#1E3652"/>
  <text x="210" y="39" text-anchor="middle" font-size="7"  fill="#4A88AA"  font-family="monospace" letter-spacing="1">base02  ·  selection  ★</text>
  <rect x="140" y="42"  width="140" height="14" fill="#243C5A"/>
  <text x="210" y="53" text-anchor="middle" font-size="7"  fill="#5A98B8"  font-family="monospace" letter-spacing="1">base03  ·  line highlight  ★</text>
  <rect x="140" y="56"  width="140" height="112" fill="#0D1B2A"/>
  <text x="210" y="104" text-anchor="middle" font-size="34" fill="#C8D8E8" font-family="monospace" font-weight="bold">Aa</text>
  <text x="210" y="132" text-anchor="middle" font-size="10" fill="#C8D8E8" font-family="monospace">Sample text</text>
  <text x="210" y="148" text-anchor="middle" font-size="9"  fill="#243C5A" font-family="monospace">// comment</text>
  <rect x="140" y="168" width="140" height="1" fill="#162A40"/>
  <text x="210" y="182" text-anchor="middle" font-size="11" fill="#5A9ABF"  font-family="monospace">Hadal</text>
  <text x="210" y="194" text-anchor="middle" font-size="9"  fill="#3A6A80"  font-family="monospace">base00  #0D1B2A</text>
  <text x="210" y="205" text-anchor="middle" font-size="9"  fill="#3A6A80"  font-family="monospace">base01  #162A40</text>
  <text x="210" y="216" text-anchor="middle" font-size="9"  fill="#4A7A9A"  font-family="monospace">base02  #1E3652</text>
  <text x="210" y="227" text-anchor="middle" font-size="9"  fill="#5A90B0"  font-family="monospace">base03  #243C5A</text>
  <text x="210" y="238" text-anchor="middle" font-size="9"  fill="#4E6E8C"  font-family="monospace">base04  #4E6E8C</text>
  <text x="210" y="249" text-anchor="middle" font-size="9"  fill="#C8D8E8"  font-family="monospace">base05  #C8D8E8</text>
  <text x="210" y="260" text-anchor="middle" font-size="9"  fill="#D8E2EE"  font-family="monospace">base06  #D8E2EE</text>
  <text x="210" y="271" text-anchor="middle" font-size="9"  fill="#EDF1F6"  font-family="monospace">base07  #EDF1F6</text>
  <rect x="170" y="279" width="22" height="6" rx="2" fill="#4E6E8C"/>
  <rect x="196" y="279" width="22" height="6" rx="2" fill="#C8D8E8"/>
  <rect x="222" y="279" width="22" height="6" rx="2" fill="#D8E2EE"/>
  <rect x="248" y="279" width="22" height="6" rx="2" fill="#EDF1F6"/>

  <!-- ══ Pelagic ══ -->
  <rect x="280" y="0"   width="140" height="28" fill="#142C3E"/>
  <text x="350" y="10" text-anchor="middle" font-size="7"  fill="#2A4A62"  font-family="monospace" letter-spacing="1">base01</text>
  <text x="350" y="23" text-anchor="middle" font-size="9"  fill="#4A6E86"  font-family="monospace">panel / sidebar</text>
  <rect x="280" y="28"  width="140" height="14" fill="#1C3A50"/>
  <text x="350" y="39" text-anchor="middle" font-size="7"  fill="#3A6275"  font-family="monospace" letter-spacing="1">base02  ·  selection</text>
  <rect x="280" y="42"  width="140" height="14" fill="#24425C"/>
  <text x="350" y="53" text-anchor="middle" font-size="7"  fill="#4A7A90"  font-family="monospace" letter-spacing="1">base03  ·  line highlight</text>
  <rect x="280" y="56"  width="140" height="112" fill="#0A1F2E"/>
  <text x="350" y="104" text-anchor="middle" font-size="34" fill="#C6D8E4" font-family="monospace" font-weight="bold">Aa</text>
  <text x="350" y="132" text-anchor="middle" font-size="10" fill="#C6D8E4" font-family="monospace">Sample text</text>
  <text x="350" y="148" text-anchor="middle" font-size="9"  fill="#24425C" font-family="monospace">// comment</text>
  <rect x="280" y="168" width="140" height="1" fill="#142C3E"/>
  <text x="350" y="182" text-anchor="middle" font-size="11" fill="#3A5A6E"  font-family="monospace">Pelagic</text>
  <text x="350" y="194" text-anchor="middle" font-size="9"  fill="#2A4050"  font-family="monospace">base00  #0A1F2E</text>
  <text x="350" y="205" text-anchor="middle" font-size="9"  fill="#2A4A62"  font-family="monospace">base01  #142C3E</text>
  <text x="350" y="216" text-anchor="middle" font-size="9"  fill="#3A607A"  font-family="monospace">base02  #1C3A50</text>
  <text x="350" y="227" text-anchor="middle" font-size="9"  fill="#4A7A90"  font-family="monospace">base03  #24425C</text>
  <text x="350" y="238" text-anchor="middle" font-size="9"  fill="#4A6E86"  font-family="monospace">base04  #4A6E86</text>
  <text x="350" y="249" text-anchor="middle" font-size="9"  fill="#C6D8E4"  font-family="monospace">base05  #C6D8E4</text>
  <text x="350" y="260" text-anchor="middle" font-size="9"  fill="#D6E2E8"  font-family="monospace">base06  #D6E2E8</text>
  <text x="350" y="271" text-anchor="middle" font-size="9"  fill="#ECF0F4"  font-family="monospace">base07  #ECF0F4</text>
  <rect x="310" y="279" width="22" height="6" rx="2" fill="#4A6E86"/>
  <rect x="336" y="279" width="22" height="6" rx="2" fill="#C6D8E4"/>
  <rect x="362" y="279" width="22" height="6" rx="2" fill="#D6E2E8"/>
  <rect x="388" y="279" width="22" height="6" rx="2" fill="#ECF0F4"/>

  <!-- ══ Benthic ══ -->
  <rect x="420" y="0"   width="140" height="28" fill="#162E42"/>
  <text x="490" y="10" text-anchor="middle" font-size="7"  fill="#2A4A62"  font-family="monospace" letter-spacing="1">base01</text>
  <text x="490" y="23" text-anchor="middle" font-size="9"  fill="#4A7080"  font-family="monospace">panel / sidebar</text>
  <rect x="420" y="28"  width="140" height="14" fill="#1E3C54"/>
  <text x="490" y="39" text-anchor="middle" font-size="7"  fill="#3A6275"  font-family="monospace" letter-spacing="1">base02  ·  selection</text>
  <rect x="420" y="42"  width="140" height="14" fill="#26445E"/>
  <text x="490" y="53" text-anchor="middle" font-size="7"  fill="#4A7A90"  font-family="monospace" letter-spacing="1">base03  ·  line highlight</text>
  <rect x="420" y="56"  width="140" height="112" fill="#0C2030"/>
  <text x="490" y="104" text-anchor="middle" font-size="34" fill="#C8DAE2" font-family="monospace" font-weight="bold">Aa</text>
  <text x="490" y="132" text-anchor="middle" font-size="10" fill="#C8DAE2" font-family="monospace">Sample text</text>
  <text x="490" y="148" text-anchor="middle" font-size="9"  fill="#26445E" font-family="monospace">// comment</text>
  <rect x="420" y="168" width="140" height="1" fill="#162E42"/>
  <text x="490" y="182" text-anchor="middle" font-size="11" fill="#3A5A6E"  font-family="monospace">Benthic</text>
  <text x="490" y="194" text-anchor="middle" font-size="9"  fill="#2A4050"  font-family="monospace">base00  #0C2030</text>
  <text x="490" y="205" text-anchor="middle" font-size="9"  fill="#2A4A62"  font-family="monospace">base01  #162E42</text>
  <text x="490" y="216" text-anchor="middle" font-size="9"  fill="#3A607A"  font-family="monospace">base02  #1E3C54</text>
  <text x="490" y="227" text-anchor="middle" font-size="9"  fill="#4A7A90"  font-family="monospace">base03  #26445E</text>
  <text x="490" y="238" text-anchor="middle" font-size="9"  fill="#4A7080"  font-family="monospace">base04  #4A7080</text>
  <text x="490" y="249" text-anchor="middle" font-size="9"  fill="#C8DAE2"  font-family="monospace">base05  #C8DAE2</text>
  <text x="490" y="260" text-anchor="middle" font-size="9"  fill="#D6E4E8"  font-family="monospace">base06  #D6E4E8</text>
  <text x="490" y="271" text-anchor="middle" font-size="9"  fill="#ECF1F3"  font-family="monospace">base07  #ECF1F3</text>
  <rect x="450" y="279" width="22" height="6" rx="2" fill="#4A7080"/>
  <rect x="476" y="279" width="22" height="6" rx="2" fill="#C8DAE2"/>
  <rect x="502" y="279" width="22" height="6" rx="2" fill="#D6E4E8"/>
  <rect x="528" y="279" width="22" height="6" rx="2" fill="#ECF1F3"/>

  <!-- ════════════════════════════════════════════════════════════
       SECTION DIVIDER
       ════════════════════════════════════════════════════════════ -->
  <rect x="0" y="285" width="560" height="4" fill="#030810"/>

  <!-- ════════════════════════════════════════════════════════════
       ACCENT COLORS  base08 – base0F  +  base10 – base17
       ════════════════════════════════════════════════════════════ -->

  <!-- HEADERS (y offset +289) -->
  <rect x="0"   y="289" width="140" height="24" fill="#0F2235"/>
  <text x="70"  y="305" text-anchor="middle" font-size="10" fill="#4C6A88" font-family="monospace">Trench</text>
  <rect x="140" y="289" width="140" height="24" fill="#162A40"/>
  <text x="210" y="305" text-anchor="middle" font-size="10" fill="#4E6E8C" font-family="monospace">Hadal  ★</text>
  <rect x="280" y="289" width="140" height="24" fill="#142C3E"/>
  <text x="350" y="305" text-anchor="middle" font-size="10" fill="#4A6E86" font-family="monospace">Pelagic</text>
  <rect x="420" y="289" width="140" height="24" fill="#162E42"/>
  <text x="490" y="305" text-anchor="middle" font-size="10" fill="#4A7080" font-family="monospace">Benthic</text>

  <!-- base08  coral -->
  <rect x="0"   y="313" width="140" height="22" fill="#081520"/>
  <rect x="140" y="313" width="140" height="22" fill="#0D1B2A"/>
  <rect x="280" y="313" width="140" height="22" fill="#0A1F2E"/>
  <rect x="420" y="313" width="140" height="22" fill="#0C2030"/>
  <rect x="5"   y="321" width="8" height="8" rx="1" fill="#C47A72"/>
  <rect x="145" y="321" width="8" height="8" rx="1" fill="#C47A72"/>
  <rect x="285" y="321" width="8" height="8" rx="1" fill="#C47A72"/>
  <rect x="425" y="321" width="8" height="8" rx="1" fill="#C47A72"/>
  <text x="17"  y="329" font-size="7.5" fill="#3A5A70" font-family="monospace">08  error</text>
  <text x="157" y="329" font-size="7.5" fill="#3A5A70" font-family="monospace">08  error</text>
  <text x="297" y="329" font-size="7.5" fill="#3A5A70" font-family="monospace">08  error</text>
  <text x="437" y="329" font-size="7.5" fill="#3A5A70" font-family="monospace">08  error</text>
  <text x="85"  y="329" font-size="7.5" fill="#C47A72" font-family="monospace">#C47A72</text>
  <text x="225" y="329" font-size="7.5" fill="#C47A72" font-family="monospace">#C47A72</text>
  <text x="365" y="329" font-size="7.5" fill="#C47A72" font-family="monospace">#C47A72</text>
  <text x="505" y="329" font-size="7.5" fill="#C47A72" font-family="monospace">#C47A72</text>

  <!-- base09  amber -->
  <rect x="0"   y="335" width="140" height="22" fill="#081520"/>
  <rect x="140" y="335" width="140" height="22" fill="#0D1B2A"/>
  <rect x="280" y="335" width="140" height="22" fill="#0A1F2E"/>
  <rect x="420" y="335" width="140" height="22" fill="#0C2030"/>
  <rect x="5"   y="343" width="8" height="8" rx="1" fill="#C8945A"/>
  <rect x="145" y="343" width="8" height="8" rx="1" fill="#C8945A"/>
  <rect x="285" y="343" width="8" height="8" rx="1" fill="#C8945A"/>
  <rect x="425" y="343" width="8" height="8" rx="1" fill="#C8945A"/>
  <text x="17"  y="351" font-size="7.5" fill="#3A5A70" font-family="monospace">09  number</text>
  <text x="157" y="351" font-size="7.5" fill="#3A5A70" font-family="monospace">09  number</text>
  <text x="297" y="351" font-size="7.5" fill="#3A5A70" font-family="monospace">09  number</text>
  <text x="437" y="351" font-size="7.5" fill="#3A5A70" font-family="monospace">09  number</text>
  <text x="85"  y="351" font-size="7.5" fill="#C8945A" font-family="monospace">#C8945A</text>
  <text x="225" y="351" font-size="7.5" fill="#C8945A" font-family="monospace">#C8945A</text>
  <text x="365" y="351" font-size="7.5" fill="#C8945A" font-family="monospace">#C8945A</text>
  <text x="505" y="351" font-size="7.5" fill="#C8945A" font-family="monospace">#C8945A</text>

  <!-- base0A  gold -->
  <rect x="0"   y="357" width="140" height="22" fill="#081520"/>
  <rect x="140" y="357" width="140" height="22" fill="#0D1B2A"/>
  <rect x="280" y="357" width="140" height="22" fill="#0A1F2E"/>
  <rect x="420" y="357" width="140" height="22" fill="#0C2030"/>
  <rect x="5"   y="365" width="8" height="8" rx="1" fill="#C8AE6A"/>
  <rect x="145" y="365" width="8" height="8" rx="1" fill="#C8AE6A"/>
  <rect x="285" y="365" width="8" height="8" rx="1" fill="#C8AE6A"/>
  <rect x="425" y="365" width="8" height="8" rx="1" fill="#C8AE6A"/>
  <text x="17"  y="373" font-size="7.5" fill="#3A5A70" font-family="monospace">0A  class</text>
  <text x="157" y="373" font-size="7.5" fill="#3A5A70" font-family="monospace">0A  class</text>
  <text x="297" y="373" font-size="7.5" fill="#3A5A70" font-family="monospace">0A  class</text>
  <text x="437" y="373" font-size="7.5" fill="#3A5A70" font-family="monospace">0A  class</text>
  <text x="85"  y="373" font-size="7.5" fill="#C8AE6A" font-family="monospace">#C8AE6A</text>
  <text x="225" y="373" font-size="7.5" fill="#C8AE6A" font-family="monospace">#C8AE6A</text>
  <text x="365" y="373" font-size="7.5" fill="#C8AE6A" font-family="monospace">#C8AE6A</text>
  <text x="505" y="373" font-size="7.5" fill="#C8AE6A" font-family="monospace">#C8AE6A</text>

  <!-- base0B  seafoam  VARIES -->
  <rect x="0"   y="379" width="140" height="22" fill="#081520"/>
  <rect x="140" y="379" width="140" height="22" fill="#0D1B2A"/>
  <rect x="280" y="379" width="140" height="22" fill="#0A1F2E"/>
  <rect x="420" y="379" width="140" height="22" fill="#0C2030"/>
  <rect x="5"   y="387" width="8" height="8" rx="1" fill="#6AB898"/>
  <rect x="145" y="387" width="8" height="8" rx="1" fill="#72B89A"/>
  <rect x="285" y="387" width="8" height="8" rx="1" fill="#68BE92"/>
  <rect x="425" y="387" width="8" height="8" rx="1" fill="#62BC8A"/>
  <text x="17"  y="395" font-size="7.5" fill="#3A5A70" font-family="monospace">0B  string</text>
  <text x="157" y="395" font-size="7.5" fill="#3A5A70" font-family="monospace">0B  string</text>
  <text x="297" y="395" font-size="7.5" fill="#3A5A70" font-family="monospace">0B  string</text>
  <text x="437" y="395" font-size="7.5" fill="#3A5A70" font-family="monospace">0B  string</text>
  <text x="85"  y="395" font-size="7.5" fill="#6AB898" font-family="monospace">#6AB898</text>
  <text x="225" y="395" font-size="7.5" fill="#72B89A" font-family="monospace">#72B89A</text>
  <text x="365" y="395" font-size="7.5" fill="#68BE92" font-family="monospace">#68BE92</text>
  <text x="505" y="395" font-size="7.5" fill="#62BC8A" font-family="monospace">#62BC8A</text>

  <!-- base0C  aqua  VARIES -->
  <rect x="0"   y="401" width="140" height="22" fill="#081520"/>
  <rect x="140" y="401" width="140" height="22" fill="#0D1B2A"/>
  <rect x="280" y="401" width="140" height="22" fill="#0A1F2E"/>
  <rect x="420" y="401" width="140" height="22" fill="#0C2030"/>
  <rect x="5"   y="409" width="8" height="8" rx="1" fill="#58C0C8"/>
  <rect x="145" y="409" width="8" height="8" rx="1" fill="#6ABDC8"/>
  <rect x="285" y="409" width="8" height="8" rx="1" fill="#50C4C0"/>
  <rect x="425" y="409" width="8" height="8" rx="1" fill="#48C8BC"/>
  <text x="17"  y="417" font-size="7.5" fill="#3A5A70" font-family="monospace">0C  regex</text>
  <text x="157" y="417" font-size="7.5" fill="#3A5A70" font-family="monospace">0C  regex</text>
  <text x="297" y="417" font-size="7.5" fill="#3A5A70" font-family="monospace">0C  regex</text>
  <text x="437" y="417" font-size="7.5" fill="#3A5A70" font-family="monospace">0C  regex</text>
  <text x="85"  y="417" font-size="7.5" fill="#58C0C8" font-family="monospace">#58C0C8</text>
  <text x="225" y="417" font-size="7.5" fill="#6ABDC8" font-family="monospace">#6ABDC8</text>
  <text x="365" y="417" font-size="7.5" fill="#50C4C0" font-family="monospace">#50C4C0</text>
  <text x="505" y="417" font-size="7.5" fill="#48C8BC" font-family="monospace">#48C8BC</text>

  <!-- base0D  blue  VARIES -->
  <rect x="0"   y="423" width="140" height="22" fill="#081520"/>
  <rect x="140" y="423" width="140" height="22" fill="#0D1B2A"/>
  <rect x="280" y="423" width="140" height="22" fill="#0A1F2E"/>
  <rect x="420" y="423" width="140" height="22" fill="#0C2030"/>
  <rect x="5"   y="431" width="8" height="8" rx="1" fill="#7090CC"/>
  <rect x="145" y="431" width="8" height="8" rx="1" fill="#7090CC"/>
  <rect x="285" y="431" width="8" height="8" rx="1" fill="#7896CC"/>
  <rect x="425" y="431" width="8" height="8" rx="1" fill="#7896CC"/>
  <text x="17"  y="439" font-size="7.5" fill="#3A5A70" font-family="monospace">0D  func</text>
  <text x="157" y="439" font-size="7.5" fill="#3A5A70" font-family="monospace">0D  func</text>
  <text x="297" y="439" font-size="7.5" fill="#3A5A70" font-family="monospace">0D  func</text>
  <text x="437" y="439" font-size="7.5" fill="#3A5A70" font-family="monospace">0D  func</text>
  <text x="85"  y="439" font-size="7.5" fill="#7090CC" font-family="monospace">#7090CC</text>
  <text x="225" y="439" font-size="7.5" fill="#7090CC" font-family="monospace">#7090CC</text>
  <text x="365" y="439" font-size="7.5" fill="#7896CC" font-family="monospace">#7896CC</text>
  <text x="505" y="439" font-size="7.5" fill="#7896CC" font-family="monospace">#7896CC</text>

  <!-- base0E  violet -->
  <rect x="0"   y="445" width="140" height="22" fill="#081520"/>
  <rect x="140" y="445" width="140" height="22" fill="#0D1B2A"/>
  <rect x="280" y="445" width="140" height="22" fill="#0A1F2E"/>
  <rect x="420" y="445" width="140" height="22" fill="#0C2030"/>
  <rect x="5"   y="453" width="8" height="8" rx="1" fill="#9A7EC8"/>
  <rect x="145" y="453" width="8" height="8" rx="1" fill="#9A7EC8"/>
  <rect x="285" y="453" width="8" height="8" rx="1" fill="#9A7EC8"/>
  <rect x="425" y="453" width="8" height="8" rx="1" fill="#9A7EC8"/>
  <text x="17"  y="461" font-size="7.5" fill="#3A5A70" font-family="monospace">0E  keyword</text>
  <text x="157" y="461" font-size="7.5" fill="#3A5A70" font-family="monospace">0E  keyword</text>
  <text x="297" y="461" font-size="7.5" fill="#3A5A70" font-family="monospace">0E  keyword</text>
  <text x="437" y="461" font-size="7.5" fill="#3A5A70" font-family="monospace">0E  keyword</text>
  <text x="85"  y="461" font-size="7.5" fill="#9A7EC8" font-family="monospace">#9A7EC8</text>
  <text x="225" y="461" font-size="7.5" fill="#9A7EC8" font-family="monospace">#9A7EC8</text>
  <text x="365" y="461" font-size="7.5" fill="#9A7EC8" font-family="monospace">#9A7EC8</text>
  <text x="505" y="461" font-size="7.5" fill="#9A7EC8" font-family="monospace">#9A7EC8</text>

  <!-- base0F  sienna -->
  <rect x="0"   y="467" width="140" height="22" fill="#081520"/>
  <rect x="140" y="467" width="140" height="22" fill="#0D1B2A"/>
  <rect x="280" y="467" width="140" height="22" fill="#0A1F2E"/>
  <rect x="420" y="467" width="140" height="22" fill="#0C2030"/>
  <rect x="5"   y="475" width="8" height="8" rx="1" fill="#8C6040"/>
  <rect x="145" y="475" width="8" height="8" rx="1" fill="#8C6040"/>
  <rect x="285" y="475" width="8" height="8" rx="1" fill="#8C6040"/>
  <rect x="425" y="475" width="8" height="8" rx="1" fill="#8C6040"/>
  <text x="17"  y="483" font-size="7.5" fill="#3A5A70" font-family="monospace">0F  depr</text>
  <text x="157" y="483" font-size="7.5" fill="#3A5A70" font-family="monospace">0F  depr</text>
  <text x="297" y="483" font-size="7.5" fill="#3A5A70" font-family="monospace">0F  depr</text>
  <text x="437" y="483" font-size="7.5" fill="#3A5A70" font-family="monospace">0F  depr</text>
  <text x="85"  y="483" font-size="7.5" fill="#8C6040" font-family="monospace">#8C6040</text>
  <text x="225" y="483" font-size="7.5" fill="#8C6040" font-family="monospace">#8C6040</text>
  <text x="365" y="483" font-size="7.5" fill="#8C6040" font-family="monospace">#8C6040</text>
  <text x="505" y="483" font-size="7.5" fill="#8C6040" font-family="monospace">#8C6040</text>

  <!-- DIVIDER base24 -->
  <rect x="0" y="489" width="560" height="22" fill="#0A1826"/>
  <text x="280" y="504" text-anchor="middle" font-size="8" fill="#3A6A88" font-family="monospace" letter-spacing="2">base10 → base17  ·  base24  ·  darker floor  +  bright variants</text>

  <!-- base10  floor  VARIES -->
  <rect x="0"   y="511" width="140" height="22" fill="#081520"/>
  <rect x="140" y="511" width="140" height="22" fill="#0D1B2A"/>
  <rect x="280" y="511" width="140" height="22" fill="#0A1F2E"/>
  <rect x="420" y="511" width="140" height="22" fill="#0C2030"/>
  <rect x="5"   y="519" width="8" height="8" rx="1" fill="#050E18"/>
  <rect x="145" y="519" width="8" height="8" rx="1" fill="#081018"/>
  <rect x="285" y="519" width="8" height="8" rx="1" fill="#071420"/>
  <rect x="425" y="519" width="8" height="8" rx="1" fill="#071520"/>
  <text x="17"  y="527" font-size="7.5" fill="#3A5A70" font-family="monospace">10  floor</text>
  <text x="157" y="527" font-size="7.5" fill="#3A5A70" font-family="monospace">10  floor</text>
  <text x="297" y="527" font-size="7.5" fill="#3A5A70" font-family="monospace">10  floor</text>
  <text x="437" y="527" font-size="7.5" fill="#3A5A70" font-family="monospace">10  floor</text>
  <text x="85"  y="527" font-size="7.5" fill="#2A4A68" font-family="monospace">#050E18</text>
  <text x="225" y="527" font-size="7.5" fill="#2A4A68" font-family="monospace">#081018</text>
  <text x="365" y="527" font-size="7.5" fill="#2A4A68" font-family="monospace">#071420</text>
  <text x="505" y="527" font-size="7.5" fill="#2A4A68" font-family="monospace">#071520</text>

  <!-- base11  bright coral -->
  <rect x="0"   y="533" width="140" height="22" fill="#081520"/>
  <rect x="140" y="533" width="140" height="22" fill="#0D1B2A"/>
  <rect x="280" y="533" width="140" height="22" fill="#0A1F2E"/>
  <rect x="420" y="533" width="140" height="22" fill="#0C2030"/>
  <rect x="5"   y="541" width="8" height="8" rx="1" fill="#D08880"/>
  <rect x="145" y="541" width="8" height="8" rx="1" fill="#D08880"/>
  <rect x="285" y="541" width="8" height="8" rx="1" fill="#D08880"/>
  <rect x="425" y="541" width="8" height="8" rx="1" fill="#D08880"/>
  <text x="17"  y="549" font-size="7.5" fill="#3A5A70" font-family="monospace">11  br.error</text>
  <text x="157" y="549" font-size="7.5" fill="#3A5A70" font-family="monospace">11  br.error</text>
  <text x="297" y="549" font-size="7.5" fill="#3A5A70" font-family="monospace">11  br.error</text>
  <text x="437" y="549" font-size="7.5" fill="#3A5A70" font-family="monospace">11  br.error</text>
  <text x="85"  y="549" font-size="7.5" fill="#D08880" font-family="monospace">#D08880</text>
  <text x="225" y="549" font-size="7.5" fill="#D08880" font-family="monospace">#D08880</text>
  <text x="365" y="549" font-size="7.5" fill="#D08880" font-family="monospace">#D08880</text>
  <text x="505" y="549" font-size="7.5" fill="#D08880" font-family="monospace">#D08880</text>

  <!-- base12  bright amber -->
  <rect x="0"   y="555" width="140" height="22" fill="#081520"/>
  <rect x="140" y="555" width="140" height="22" fill="#0D1B2A"/>
  <rect x="280" y="555" width="140" height="22" fill="#0A1F2E"/>
  <rect x="420" y="555" width="140" height="22" fill="#0C2030"/>
  <rect x="5"   y="563" width="8" height="8" rx="1" fill="#D4A870"/>
  <rect x="145" y="563" width="8" height="8" rx="1" fill="#D4A870"/>
  <rect x="285" y="563" width="8" height="8" rx="1" fill="#D4A870"/>
  <rect x="425" y="563" width="8" height="8" rx="1" fill="#D4A870"/>
  <text x="17"  y="571" font-size="7.5" fill="#3A5A70" font-family="monospace">12  br.number</text>
  <text x="157" y="571" font-size="7.5" fill="#3A5A70" font-family="monospace">12  br.number</text>
  <text x="297" y="571" font-size="7.5" fill="#3A5A70" font-family="monospace">12  br.number</text>
  <text x="437" y="571" font-size="7.5" fill="#3A5A70" font-family="monospace">12  br.number</text>
  <text x="85"  y="571" font-size="7.5" fill="#D4A870" font-family="monospace">#D4A870</text>
  <text x="225" y="571" font-size="7.5" fill="#D4A870" font-family="monospace">#D4A870</text>
  <text x="365" y="571" font-size="7.5" fill="#D4A870" font-family="monospace">#D4A870</text>
  <text x="505" y="571" font-size="7.5" fill="#D4A870" font-family="monospace">#D4A870</text>

  <!-- base13  bright gold -->
  <rect x="0"   y="577" width="140" height="22" fill="#081520"/>
  <rect x="140" y="577" width="140" height="22" fill="#0D1B2A"/>
  <rect x="280" y="577" width="140" height="22" fill="#0A1F2E"/>
  <rect x="420" y="577" width="140" height="22" fill="#0C2030"/>
  <rect x="5"   y="585" width="8" height="8" rx="1" fill="#D4BE82"/>
  <rect x="145" y="585" width="8" height="8" rx="1" fill="#D4BE82"/>
  <rect x="285" y="585" width="8" height="8" rx="1" fill="#D4BE82"/>
  <rect x="425" y="585" width="8" height="8" rx="1" fill="#D4BE82"/>
  <text x="17"  y="593" font-size="7.5" fill="#3A5A70" font-family="monospace">13  br.class</text>
  <text x="157" y="593" font-size="7.5" fill="#3A5A70" font-family="monospace">13  br.class</text>
  <text x="297" y="593" font-size="7.5" fill="#3A5A70" font-family="monospace">13  br.class</text>
  <text x="437" y="593" font-size="7.5" fill="#3A5A70" font-family="monospace">13  br.class</text>
  <text x="85"  y="593" font-size="7.5" fill="#D4BE82" font-family="monospace">#D4BE82</text>
  <text x="225" y="593" font-size="7.5" fill="#D4BE82" font-family="monospace">#D4BE82</text>
  <text x="365" y="593" font-size="7.5" fill="#D4BE82" font-family="monospace">#D4BE82</text>
  <text x="505" y="593" font-size="7.5" fill="#D4BE82" font-family="monospace">#D4BE82</text>

  <!-- base14  bright seafoam  VARIES -->
  <rect x="0"   y="599" width="140" height="22" fill="#081520"/>
  <rect x="140" y="599" width="140" height="22" fill="#0D1B2A"/>
  <rect x="280" y="599" width="140" height="22" fill="#0A1F2E"/>
  <rect x="420" y="599" width="140" height="22" fill="#0C2030"/>
  <rect x="5"   y="607" width="8" height="8" rx="1" fill="#82CCB0"/>
  <rect x="145" y="607" width="8" height="8" rx="1" fill="#88CCAE"/>
  <rect x="285" y="607" width="8" height="8" rx="1" fill="#80CCAA"/>
  <rect x="425" y="607" width="8" height="8" rx="1" fill="#7CCCA4"/>
  <text x="17"  y="615" font-size="7.5" fill="#3A5A70" font-family="monospace">14  br.string</text>
  <text x="157" y="615" font-size="7.5" fill="#3A5A70" font-family="monospace">14  br.string</text>
  <text x="297" y="615" font-size="7.5" fill="#3A5A70" font-family="monospace">14  br.string</text>
  <text x="437" y="615" font-size="7.5" fill="#3A5A70" font-family="monospace">14  br.string</text>
  <text x="85"  y="615" font-size="7.5" fill="#82CCB0" font-family="monospace">#82CCB0</text>
  <text x="225" y="615" font-size="7.5" fill="#88CCAE" font-family="monospace">#88CCAE</text>
  <text x="365" y="615" font-size="7.5" fill="#80CCAA" font-family="monospace">#80CCAA</text>
  <text x="505" y="615" font-size="7.5" fill="#7CCCA4" font-family="monospace">#7CCCA4</text>

  <!-- base15  bright aqua  VARIES -->
  <rect x="0"   y="621" width="140" height="22" fill="#081520"/>
  <rect x="140" y="621" width="140" height="22" fill="#0D1B2A"/>
  <rect x="280" y="621" width="140" height="22" fill="#0A1F2E"/>
  <rect x="420" y="621" width="140" height="22" fill="#0C2030"/>
  <rect x="5"   y="629" width="8" height="8" rx="1" fill="#72D0D8"/>
  <rect x="145" y="629" width="8" height="8" rx="1" fill="#80CDD8"/>
  <rect x="285" y="629" width="8" height="8" rx="1" fill="#68D4D0"/>
  <rect x="425" y="629" width="8" height="8" rx="1" fill="#62D8D0"/>
  <text x="17"  y="637" font-size="7.5" fill="#3A5A70" font-family="monospace">15  br.regex</text>
  <text x="157" y="637" font-size="7.5" fill="#3A5A70" font-family="monospace">15  br.regex</text>
  <text x="297" y="637" font-size="7.5" fill="#3A5A70" font-family="monospace">15  br.regex</text>
  <text x="437" y="637" font-size="7.5" fill="#3A5A70" font-family="monospace">15  br.regex</text>
  <text x="85"  y="637" font-size="7.5" fill="#72D0D8" font-family="monospace">#72D0D8</text>
  <text x="225" y="637" font-size="7.5" fill="#80CDD8" font-family="monospace">#80CDD8</text>
  <text x="365" y="637" font-size="7.5" fill="#68D4D0" font-family="monospace">#68D4D0</text>
  <text x="505" y="637" font-size="7.5" fill="#62D8D0" font-family="monospace">#62D8D0</text>

  <!-- base16  bright blue  VARIES -->
  <rect x="0"   y="643" width="140" height="22" fill="#081520"/>
  <rect x="140" y="643" width="140" height="22" fill="#0D1B2A"/>
  <rect x="280" y="643" width="140" height="22" fill="#0A1F2E"/>
  <rect x="420" y="643" width="140" height="22" fill="#0C2030"/>
  <rect x="5"   y="651" width="8" height="8" rx="1" fill="#8AAAD8"/>
  <rect x="145" y="651" width="8" height="8" rx="1" fill="#8AAAD8"/>
  <rect x="285" y="651" width="8" height="8" rx="1" fill="#90AED8"/>
  <rect x="425" y="651" width="8" height="8" rx="1" fill="#90AED8"/>
  <text x="17"  y="659" font-size="7.5" fill="#3A5A70" font-family="monospace">16  br.func</text>
  <text x="157" y="659" font-size="7.5" fill="#3A5A70" font-family="monospace">16  br.func</text>
  <text x="297" y="659" font-size="7.5" fill="#3A5A70" font-family="monospace">16  br.func</text>
  <text x="437" y="659" font-size="7.5" fill="#3A5A70" font-family="monospace">16  br.func</text>
  <text x="85"  y="659" font-size="7.5" fill="#8AAAD8" font-family="monospace">#8AAAD8</text>
  <text x="225" y="659" font-size="7.5" fill="#8AAAD8" font-family="monospace">#8AAAD8</text>
  <text x="365" y="659" font-size="7.5" fill="#90AED8" font-family="monospace">#90AED8</text>
  <text x="505" y="659" font-size="7.5" fill="#90AED8" font-family="monospace">#90AED8</text>

  <!-- base17  bright violet -->
  <rect x="0"   y="665" width="140" height="22" fill="#081520"/>
  <rect x="140" y="665" width="140" height="22" fill="#0D1B2A"/>
  <rect x="280" y="665" width="140" height="22" fill="#0A1F2E"/>
  <rect x="420" y="665" width="140" height="22" fill="#0C2030"/>
  <rect x="5"   y="673" width="8" height="8" rx="1" fill="#AE96D4"/>
  <rect x="145" y="673" width="8" height="8" rx="1" fill="#AE96D4"/>
  <rect x="285" y="673" width="8" height="8" rx="1" fill="#AE96D4"/>
  <rect x="425" y="673" width="8" height="8" rx="1" fill="#AE96D4"/>
  <text x="17"  y="681" font-size="7.5" fill="#3A5A70" font-family="monospace">17  br.keyword</text>
  <text x="157" y="681" font-size="7.5" fill="#3A5A70" font-family="monospace">17  br.keyword</text>
  <text x="297" y="681" font-size="7.5" fill="#3A5A70" font-family="monospace">17  br.keyword</text>
  <text x="437" y="681" font-size="7.5" fill="#3A5A70" font-family="monospace">17  br.keyword</text>
  <text x="85"  y="681" font-size="7.5" fill="#AE96D4" font-family="monospace">#AE96D4</text>
  <text x="225" y="681" font-size="7.5" fill="#AE96D4" font-family="monospace">#AE96D4</text>
  <text x="365" y="681" font-size="7.5" fill="#AE96D4" font-family="monospace">#AE96D4</text>
  <text x="505" y="681" font-size="7.5" fill="#AE96D4" font-family="monospace">#AE96D4</text>

</svg>
